<svg width="25" height="30" viewBox="0 0 25 30" fill="none" xmlns="http://www.w3.org/2000/svg">
<path d="M2.27438 27.0011L0 0H25L22.7226 26.9968L12.4848 30L2.27438 27.0011Z" fill="#1572B6"/>
<path d="M12.5 27.705L20.7733 25.2782L22.7195 2.20825H12.5V27.705Z" fill="#33A9DC"/>
<path d="M12.5 11.9903H16.6417L16.9273 8.59926H12.5V5.28748H20.348L20.273 6.17569L19.5044 15.3021H12.5V11.9903Z" fill="white"/>
<path d="M12.5192 20.5907L12.505 20.595L9.01954 19.5986L8.79676 16.9575H5.65454L6.09301 22.1572L12.504 24.0407L12.5192 24.0365V20.5907Z" fill="#EBEBEB"/>
<path d="M16.3753 15.1617L15.9986 19.5964L12.5081 20.5928V24.0385L18.9241 22.1571L18.9717 21.5978L19.5155 15.1617H16.3753Z" fill="white"/>
<path d="M12.5111 5.28748V8.59927H4.95079L4.88801 7.85463L4.74522 6.17569L4.67029 5.28748H12.5111Z" fill="#EBEBEB"/>
<path d="M12.5 11.9904V15.3021H9.05805L8.99527 14.5575L8.8535 12.8786L8.77856 11.9904H12.5Z" fill="#EBEBEB"/>
</svg>
